<mxfile host="app.diagrams.net" agent="Mozilla/5.0 (Windows NT 10.0; Win64; x64; rv:134.0) Gecko/20100101 Firefox/134.0" version="26.0.6">
  <diagram name="Page-1" id="e7e014a7-5840-1c2e-5031-d8a46d1fe8dd">
    <mxGraphModel dx="1687" dy="878" grid="1" gridSize="10" guides="1" tooltips="1" connect="1" arrows="1" fold="1" page="1" pageScale="1" pageWidth="1169" pageHeight="826" background="none" math="0" shadow="0">
      <root>
        <mxCell id="0" />
        <mxCell id="1" parent="0" />
        <mxCell id="3" value="buildLadder" style="swimlane;whiteSpace=wrap" parent="1" vertex="1">
          <mxGeometry x="780" y="120" width="940" height="1050" as="geometry" />
        </mxCell>
        <mxCell id="15" value="move from SP to GB_a" style="fontSize=10;verticalAlign=middle;horizontal=1;rounded=1;" parent="3" vertex="1">
          <mxGeometry x="369" y="207" width="110" height="50" as="geometry" />
        </mxCell>
        <mxCell id="22" value="" style="edgeStyle=elbowEdgeStyle;elbow=horizontal;align=left;verticalAlign=bottom;endArrow=open;endSize=8;exitX=0.5;exitY=1;endFill=1;rounded=0;entryX=0.5;entryY=0;entryDx=0;entryDy=0;exitDx=0;exitDy=0;" parent="3" source="_Sj6H3lR2v7R7_RWuAPX-46" target="15" edge="1">
          <mxGeometry x="-1" relative="1" as="geometry">
            <mxPoint x="420" y="215" as="targetPoint" />
            <Array as="points">
              <mxPoint x="424" y="180" />
            </Array>
            <mxPoint x="300" y="220" as="sourcePoint" />
          </mxGeometry>
        </mxCell>
        <mxCell id="_Sj6H3lR2v7R7_RWuAPX-50" value="false" style="edgeLabel;html=1;align=center;verticalAlign=middle;resizable=0;points=[];" parent="22" vertex="1" connectable="0">
          <mxGeometry x="0.2669" relative="1" as="geometry">
            <mxPoint y="-14" as="offset" />
          </mxGeometry>
        </mxCell>
        <mxCell id="_Sj6H3lR2v7R7_RWuAPX-46" value="enemy in base" style="rhombus;fontSize=9;" parent="3" vertex="1">
          <mxGeometry x="384" y="111" width="80" height="40" as="geometry" />
        </mxCell>
        <mxCell id="_Sj6H3lR2v7R7_RWuAPX-51" value="" style="edgeStyle=elbowEdgeStyle;elbow=horizontal;align=left;verticalAlign=bottom;endArrow=open;endSize=8;exitX=0;exitY=0.5;endFill=1;rounded=0;exitDx=0;exitDy=0;entryX=1;entryY=0.5;entryDx=0;entryDy=0;" parent="3" source="_Sj6H3lR2v7R7_RWuAPX-46" target="_Sj6H3lR2v7R7_RWuAPX-160" edge="1">
          <mxGeometry x="-1" relative="1" as="geometry">
            <mxPoint x="229.34000000000015" y="131.21000000000004" as="targetPoint" />
            <Array as="points">
              <mxPoint x="330" y="130" />
            </Array>
            <mxPoint x="70" y="99" as="sourcePoint" />
          </mxGeometry>
        </mxCell>
        <mxCell id="_Sj6H3lR2v7R7_RWuAPX-52" value="&lt;div&gt;true&lt;/div&gt;" style="edgeLabel;html=1;align=center;verticalAlign=middle;resizable=0;points=[];" parent="_Sj6H3lR2v7R7_RWuAPX-51" vertex="1" connectable="0">
          <mxGeometry x="0.2669" relative="1" as="geometry">
            <mxPoint x="3" as="offset" />
          </mxGeometry>
        </mxCell>
        <mxCell id="_Sj6H3lR2v7R7_RWuAPX-54" value="step towards C_bridge" style="rounded=1;fontSize=11;" parent="3" vertex="1">
          <mxGeometry x="369" y="362" width="110" height="50" as="geometry" />
        </mxCell>
        <mxCell id="_Sj6H3lR2v7R7_RWuAPX-55" value="princess rescued" style="rhombus;fontSize=9;" parent="3" vertex="1">
          <mxGeometry x="384" y="282" width="80" height="40" as="geometry" />
        </mxCell>
        <mxCell id="_Sj6H3lR2v7R7_RWuAPX-65" value="" style="edgeStyle=elbowEdgeStyle;elbow=horizontal;align=left;verticalAlign=bottom;endArrow=open;endSize=8;exitX=0.5;exitY=1;endFill=1;rounded=0;exitDx=0;exitDy=0;entryX=0.5;entryY=0;entryDx=0;entryDy=0;" parent="3" source="_Sj6H3lR2v7R7_RWuAPX-55" edge="1" target="_Sj6H3lR2v7R7_RWuAPX-54">
          <mxGeometry x="-1" relative="1" as="geometry">
            <mxPoint x="420" y="362" as="targetPoint" />
            <Array as="points">
              <mxPoint x="424" y="340" />
            </Array>
            <mxPoint x="419.56999999999994" y="327" as="sourcePoint" />
          </mxGeometry>
        </mxCell>
        <mxCell id="_Sj6H3lR2v7R7_RWuAPX-66" value="false" style="edgeLabel;html=1;align=center;verticalAlign=middle;resizable=0;points=[];" parent="_Sj6H3lR2v7R7_RWuAPX-65" vertex="1" connectable="0">
          <mxGeometry x="0.2669" relative="1" as="geometry">
            <mxPoint y="-14" as="offset" />
          </mxGeometry>
        </mxCell>
        <mxCell id="_Sj6H3lR2v7R7_RWuAPX-70" value="" style="ellipse;shape=startState;fillColor=#000000;strokeColor=#000000;" parent="3" vertex="1">
          <mxGeometry x="409" y="40" width="30" height="30" as="geometry" />
        </mxCell>
        <mxCell id="_Sj6H3lR2v7R7_RWuAPX-71" value="" style="edgeStyle=elbowEdgeStyle;elbow=horizontal;verticalAlign=bottom;endArrow=open;endSize=8;endFill=1;rounded=0;entryX=0.5;entryY=0;entryDx=0;entryDy=0;exitX=0.5;exitY=1;exitDx=0;exitDy=0;" parent="3" source="_Sj6H3lR2v7R7_RWuAPX-70" edge="1" target="_Sj6H3lR2v7R7_RWuAPX-46">
          <mxGeometry x="-70" y="-108" as="geometry">
            <mxPoint x="420" y="110" as="targetPoint" />
            <mxPoint x="424" y="70" as="sourcePoint" />
          </mxGeometry>
        </mxCell>
        <mxCell id="_Sj6H3lR2v7R7_RWuAPX-73" value="" style="edgeStyle=elbowEdgeStyle;elbow=horizontal;entryX=0.503;entryY=0.03;endArrow=open;endFill=1;rounded=0;entryDx=0;entryDy=0;entryPerimeter=0;exitX=0.5;exitY=1;exitDx=0;exitDy=0;" parent="3" target="_Sj6H3lR2v7R7_RWuAPX-55" edge="1" source="15">
          <mxGeometry width="100" height="100" relative="1" as="geometry">
            <mxPoint x="420" y="257" as="sourcePoint" />
            <mxPoint x="470" y="301" as="targetPoint" />
            <Array as="points">
              <mxPoint x="424" y="270" />
            </Array>
          </mxGeometry>
        </mxCell>
        <mxCell id="_Sj6H3lR2v7R7_RWuAPX-83" value="fall from bridge" style="rhombus;fontSize=9;" parent="3" vertex="1">
          <mxGeometry x="384" y="525" width="80" height="40" as="geometry" />
        </mxCell>
        <mxCell id="_Sj6H3lR2v7R7_RWuAPX-85" value="" style="edgeStyle=elbowEdgeStyle;elbow=horizontal;align=left;verticalAlign=bottom;endArrow=open;endSize=8;endFill=1;rounded=0;exitX=0;exitY=0.5;exitDx=0;exitDy=0;" parent="3" source="_Sj6H3lR2v7R7_RWuAPX-83" target="_Sj6H3lR2v7R7_RWuAPX-70" edge="1">
          <mxGeometry x="-1" relative="1" as="geometry">
            <mxPoint x="320" y="500" as="targetPoint" />
            <Array as="points">
              <mxPoint x="40" y="330" />
            </Array>
            <mxPoint x="230" y="500" as="sourcePoint" />
          </mxGeometry>
        </mxCell>
        <mxCell id="_Sj6H3lR2v7R7_RWuAPX-86" value="&lt;div&gt;true&lt;/div&gt;" style="edgeLabel;html=1;align=center;verticalAlign=middle;resizable=0;points=[];" parent="_Sj6H3lR2v7R7_RWuAPX-85" vertex="1" connectable="0">
          <mxGeometry x="0.2669" relative="1" as="geometry">
            <mxPoint x="-17" as="offset" />
          </mxGeometry>
        </mxCell>
        <mxCell id="_Sj6H3lR2v7R7_RWuAPX-91" value="" style="edgeStyle=elbowEdgeStyle;elbow=horizontal;align=left;verticalAlign=bottom;endArrow=open;endSize=8;endFill=1;rounded=0;exitX=0.5;exitY=1;exitDx=0;exitDy=0;entryX=0.5;entryY=0;entryDx=0;entryDy=0;" parent="3" source="_Sj6H3lR2v7R7_RWuAPX-83" target="_Sj6H3lR2v7R7_RWuAPX-141" edge="1">
          <mxGeometry x="-1" relative="1" as="geometry">
            <mxPoint x="454" y="635" as="targetPoint" />
            <Array as="points" />
            <mxPoint x="424" y="465" as="sourcePoint" />
          </mxGeometry>
        </mxCell>
        <mxCell id="_Sj6H3lR2v7R7_RWuAPX-92" value="&lt;div&gt;false&lt;/div&gt;" style="edgeLabel;html=1;align=center;verticalAlign=middle;resizable=0;points=[];" parent="_Sj6H3lR2v7R7_RWuAPX-91" vertex="1" connectable="0">
          <mxGeometry x="0.2669" relative="1" as="geometry">
            <mxPoint x="-17" as="offset" />
          </mxGeometry>
        </mxCell>
        <mxCell id="_Sj6H3lR2v7R7_RWuAPX-104" value="" style="edgeStyle=elbowEdgeStyle;elbow=horizontal;verticalAlign=bottom;endArrow=open;endSize=8;endFill=1;rounded=0;entryX=0.5;entryY=0;entryDx=0;entryDy=0;exitX=0.5;exitY=1;exitDx=0;exitDy=0;" parent="3" source="_Sj6H3lR2v7R7_RWuAPX-54" target="_Sj6H3lR2v7R7_RWuAPX-103" edge="1">
          <mxGeometry x="-180" y="-236" as="geometry">
            <mxPoint x="564" y="663" as="targetPoint" />
            <mxPoint x="564" y="540" as="sourcePoint" />
          </mxGeometry>
        </mxCell>
        <mxCell id="_Sj6H3lR2v7R7_RWuAPX-109" value="" style="edgeStyle=elbowEdgeStyle;elbow=horizontal;align=left;verticalAlign=bottom;endArrow=open;endSize=8;endFill=1;rounded=0;exitX=0.5;exitY=1;exitDx=0;exitDy=0;entryX=0.5;entryY=0;entryDx=0;entryDy=0;" parent="3" source="_Sj6H3lR2v7R7_RWuAPX-103" target="_Sj6H3lR2v7R7_RWuAPX-83" edge="1">
          <mxGeometry x="-1" relative="1" as="geometry">
            <mxPoint x="453.58000000000004" y="543" as="targetPoint" />
            <Array as="points" />
            <mxPoint x="453.58000000000004" y="483" as="sourcePoint" />
          </mxGeometry>
        </mxCell>
        <mxCell id="_Sj6H3lR2v7R7_RWuAPX-110" value="&lt;div&gt;false&lt;/div&gt;" style="edgeLabel;html=1;align=center;verticalAlign=middle;resizable=0;points=[];" parent="_Sj6H3lR2v7R7_RWuAPX-109" vertex="1" connectable="0">
          <mxGeometry x="0.2669" relative="1" as="geometry">
            <mxPoint x="-17" as="offset" />
          </mxGeometry>
        </mxCell>
        <mxCell id="_Sj6H3lR2v7R7_RWuAPX-103" value="enemy in &#xa;sight" style="rhombus;fontSize=9;" parent="3" vertex="1">
          <mxGeometry x="384" y="443" width="80" height="40" as="geometry" />
        </mxCell>
        <mxCell id="_Sj6H3lR2v7R7_RWuAPX-128" value="C_bridge &#xa;reached" style="rhombus;fontSize=9;" parent="3" vertex="1">
          <mxGeometry x="384" y="850" width="80" height="40" as="geometry" />
        </mxCell>
        <mxCell id="_Sj6H3lR2v7R7_RWuAPX-132" value="" style="edgeStyle=elbowEdgeStyle;elbow=horizontal;align=left;verticalAlign=bottom;endArrow=open;endSize=8;endFill=1;rounded=0;exitX=0.5;exitY=1;exitDx=0;exitDy=0;entryX=0.5;entryY=1;entryDx=0;entryDy=0;" parent="3" source="_Sj6H3lR2v7R7_RWuAPX-128" target="ikUV5bZF2InAvdVvWLT--31" edge="1">
          <mxGeometry x="-1" relative="1" as="geometry">
            <mxPoint x="425" y="950" as="targetPoint" />
            <Array as="points">
              <mxPoint x="610" y="970" />
            </Array>
            <mxPoint x="344.57000000000005" y="1020" as="sourcePoint" />
          </mxGeometry>
        </mxCell>
        <mxCell id="_Sj6H3lR2v7R7_RWuAPX-133" value="true" style="edgeLabel;html=1;align=center;verticalAlign=middle;resizable=0;points=[];" parent="_Sj6H3lR2v7R7_RWuAPX-132" vertex="1" connectable="0">
          <mxGeometry x="0.2669" relative="1" as="geometry">
            <mxPoint x="-17" as="offset" />
          </mxGeometry>
        </mxCell>
        <mxCell id="_Sj6H3lR2v7R7_RWuAPX-134" value="" style="edgeStyle=elbowEdgeStyle;elbow=horizontal;align=left;verticalAlign=bottom;endArrow=open;endSize=8;endFill=1;rounded=0;exitX=1;exitY=0.5;exitDx=0;exitDy=0;entryX=1;entryY=0.5;entryDx=0;entryDy=0;" parent="3" edge="1" target="_Sj6H3lR2v7R7_RWuAPX-54" source="_Sj6H3lR2v7R7_RWuAPX-128">
          <mxGeometry x="-1" relative="1" as="geometry">
            <mxPoint x="477" y="387" as="targetPoint" />
            <Array as="points">
              <mxPoint x="497" y="585" />
            </Array>
            <mxPoint x="462" y="785" as="sourcePoint" />
          </mxGeometry>
        </mxCell>
        <mxCell id="_Sj6H3lR2v7R7_RWuAPX-135" value="&lt;div&gt;false&lt;/div&gt;" style="edgeLabel;html=1;align=center;verticalAlign=middle;resizable=0;points=[];" parent="_Sj6H3lR2v7R7_RWuAPX-134" vertex="1" connectable="0">
          <mxGeometry x="0.2669" relative="1" as="geometry">
            <mxPoint x="-17" as="offset" />
          </mxGeometry>
        </mxCell>
        <mxCell id="_Sj6H3lR2v7R7_RWuAPX-141" value="princess &#xa;rescued" style="rhombus;fontSize=9;" parent="3" vertex="1">
          <mxGeometry x="384" y="639" width="80" height="40" as="geometry" />
        </mxCell>
        <mxCell id="_Sj6H3lR2v7R7_RWuAPX-151" value="" style="edgeStyle=elbowEdgeStyle;elbow=horizontal;align=left;verticalAlign=bottom;endArrow=open;endSize=8;endFill=1;rounded=0;exitX=0.5;exitY=1;exitDx=0;exitDy=0;entryX=0.5;entryY=0;entryDx=0;entryDy=0;" parent="3" source="_Sj6H3lR2v7R7_RWuAPX-141" target="_Sj6H3lR2v7R7_RWuAPX-190" edge="1">
          <mxGeometry x="-1" relative="1" as="geometry">
            <mxPoint x="424" y="740" as="targetPoint" />
            <Array as="points" />
            <mxPoint x="453.75" y="679" as="sourcePoint" />
          </mxGeometry>
        </mxCell>
        <mxCell id="_Sj6H3lR2v7R7_RWuAPX-152" value="false" style="edgeLabel;html=1;align=center;verticalAlign=middle;resizable=0;points=[];" parent="_Sj6H3lR2v7R7_RWuAPX-151" vertex="1" connectable="0">
          <mxGeometry x="0.2669" relative="1" as="geometry">
            <mxPoint x="-17" as="offset" />
          </mxGeometry>
        </mxCell>
        <mxCell id="_Sj6H3lR2v7R7_RWuAPX-160" value="&lt;div align=&quot;center&quot;&gt;&lt;font style=&quot;font-size: 6px;&quot;&gt;&lt;b&gt;&lt;font style=&quot;line-height: 100%;&quot;&gt;attackEnemy&lt;/font&gt;&lt;/b&gt;&lt;/font&gt;&lt;/div&gt;" style="rounded=0;whiteSpace=wrap;html=1;align=center;" parent="3" vertex="1">
          <mxGeometry x="270" y="121" width="50" height="20" as="geometry" />
        </mxCell>
        <mxCell id="_Sj6H3lR2v7R7_RWuAPX-163" value="&lt;font style=&quot;font-size: 6px;&quot;&gt;&lt;b&gt;protectPrincess&lt;/b&gt;&lt;/font&gt;" style="rounded=0;whiteSpace=wrap;html=1;align=center;" parent="3" vertex="1">
          <mxGeometry x="270" y="292" width="50" height="20" as="geometry" />
        </mxCell>
        <mxCell id="_Sj6H3lR2v7R7_RWuAPX-161" value="" style="edgeStyle=elbowEdgeStyle;elbow=horizontal;align=left;verticalAlign=bottom;endArrow=open;endSize=8;endFill=1;rounded=0;entryX=1;entryY=0.5;entryDx=0;entryDy=0;exitX=0;exitY=0.5;exitDx=0;exitDy=0;" parent="3" source="_Sj6H3lR2v7R7_RWuAPX-55" target="_Sj6H3lR2v7R7_RWuAPX-163" edge="1">
          <mxGeometry x="-1" relative="1" as="geometry">
            <mxPoint x="239.34000000000015" y="141.21000000000004" as="targetPoint" />
            <Array as="points">
              <mxPoint x="360" y="290" />
            </Array>
            <mxPoint x="380" y="300" as="sourcePoint" />
          </mxGeometry>
        </mxCell>
        <mxCell id="_Sj6H3lR2v7R7_RWuAPX-162" value="&lt;div&gt;true&lt;/div&gt;" style="edgeLabel;html=1;align=center;verticalAlign=middle;resizable=0;points=[];" parent="_Sj6H3lR2v7R7_RWuAPX-161" vertex="1" connectable="0">
          <mxGeometry x="0.2669" relative="1" as="geometry">
            <mxPoint x="3" as="offset" />
          </mxGeometry>
        </mxCell>
        <mxCell id="_Sj6H3lR2v7R7_RWuAPX-168" value="" style="edgeStyle=elbowEdgeStyle;elbow=horizontal;align=left;verticalAlign=bottom;endArrow=open;endSize=8;endFill=1;rounded=0;exitX=0;exitY=0.5;exitDx=0;exitDy=0;entryX=1;entryY=0.5;entryDx=0;entryDy=0;" parent="3" source="_Sj6H3lR2v7R7_RWuAPX-141" target="_Sj6H3lR2v7R7_RWuAPX-170" edge="1">
          <mxGeometry x="-1" relative="1" as="geometry">
            <mxPoint x="370" y="659" as="targetPoint" />
            <Array as="points" />
            <mxPoint x="415" y="659" as="sourcePoint" />
          </mxGeometry>
        </mxCell>
        <mxCell id="_Sj6H3lR2v7R7_RWuAPX-169" value="true" style="edgeLabel;html=1;align=center;verticalAlign=middle;resizable=0;points=[];" parent="_Sj6H3lR2v7R7_RWuAPX-168" vertex="1" connectable="0">
          <mxGeometry x="0.2669" relative="1" as="geometry">
            <mxPoint x="9" as="offset" />
          </mxGeometry>
        </mxCell>
        <mxCell id="_Sj6H3lR2v7R7_RWuAPX-170" value="&lt;font style=&quot;font-size: 6px;&quot;&gt;&lt;b&gt;protectPrincess&lt;/b&gt;&lt;/font&gt;" style="rounded=0;whiteSpace=wrap;html=1;align=center;" parent="3" vertex="1">
          <mxGeometry x="290" y="649" width="50" height="20" as="geometry" />
        </mxCell>
        <mxCell id="_Sj6H3lR2v7R7_RWuAPX-173" value="" style="edgeStyle=elbowEdgeStyle;elbow=horizontal;align=left;verticalAlign=bottom;endArrow=open;endSize=8;endFill=1;rounded=0;exitX=0;exitY=0.5;exitDx=0;exitDy=0;entryX=1;entryY=0.5;entryDx=0;entryDy=0;" parent="3" source="_Sj6H3lR2v7R7_RWuAPX-103" target="_Sj6H3lR2v7R7_RWuAPX-175" edge="1">
          <mxGeometry x="-1" relative="1" as="geometry">
            <mxPoint x="370" y="463" as="targetPoint" />
            <Array as="points" />
            <mxPoint x="415" y="463" as="sourcePoint" />
          </mxGeometry>
        </mxCell>
        <mxCell id="_Sj6H3lR2v7R7_RWuAPX-174" value="true" style="edgeLabel;html=1;align=center;verticalAlign=middle;resizable=0;points=[];" parent="_Sj6H3lR2v7R7_RWuAPX-173" vertex="1" connectable="0">
          <mxGeometry x="0.2669" relative="1" as="geometry">
            <mxPoint x="9" as="offset" />
          </mxGeometry>
        </mxCell>
        <mxCell id="_Sj6H3lR2v7R7_RWuAPX-175" value="&lt;font style=&quot;font-size: 6px;&quot;&gt;&lt;b&gt;attackEnemy&lt;/b&gt;&lt;/font&gt;" style="rounded=0;whiteSpace=wrap;html=1;align=center;" parent="3" vertex="1">
          <mxGeometry x="290" y="453" width="50" height="20" as="geometry" />
        </mxCell>
        <mxCell id="_Sj6H3lR2v7R7_RWuAPX-176" value="" style="edgeStyle=elbowEdgeStyle;elbow=horizontal;align=left;verticalAlign=bottom;endArrow=open;endSize=8;endFill=1;rounded=0;exitX=0;exitY=0.5;exitDx=0;exitDy=0;entryX=1;entryY=0.5;entryDx=0;entryDy=0;" parent="3" target="_Sj6H3lR2v7R7_RWuAPX-178" edge="1">
          <mxGeometry x="-1" relative="1" as="geometry">
            <mxPoint x="480" y="724" as="targetPoint" />
            <Array as="points" />
            <mxPoint x="490" y="724" as="sourcePoint" />
          </mxGeometry>
        </mxCell>
        <mxCell id="_Sj6H3lR2v7R7_RWuAPX-190" value="&#xa;ladder is&#xa;up&#xa;" style="rhombus;fontSize=9;" parent="3" vertex="1">
          <mxGeometry x="384" y="745" width="80" height="40" as="geometry" />
        </mxCell>
        <mxCell id="_Sj6H3lR2v7R7_RWuAPX-201" value="&#xa;ladder is&#xa;up&#xa;" style="rhombus;fontSize=9;" parent="3" vertex="1">
          <mxGeometry x="760" y="639" width="80" height="40" as="geometry" />
        </mxCell>
        <mxCell id="_Sj6H3lR2v7R7_RWuAPX-209" value="princess &#xa;rescued" style="rhombus;fontSize=9;" parent="3" vertex="1">
          <mxGeometry x="760" y="735" width="80" height="40" as="geometry" />
        </mxCell>
        <mxCell id="_Sj6H3lR2v7R7_RWuAPX-210" value="" style="edgeStyle=elbowEdgeStyle;elbow=horizontal;align=left;verticalAlign=bottom;endArrow=open;endSize=8;endFill=1;rounded=0;exitX=0;exitY=0.5;exitDx=0;exitDy=0;entryX=1;entryY=0.5;entryDx=0;entryDy=0;" parent="3" source="_Sj6H3lR2v7R7_RWuAPX-209" target="_Sj6H3lR2v7R7_RWuAPX-212" edge="1">
          <mxGeometry x="-1" relative="1" as="geometry">
            <mxPoint x="719" y="754.43" as="targetPoint" />
            <Array as="points" />
            <mxPoint x="759" y="754.43" as="sourcePoint" />
          </mxGeometry>
        </mxCell>
        <mxCell id="_Sj6H3lR2v7R7_RWuAPX-211" value="true" style="edgeLabel;html=1;align=center;verticalAlign=middle;resizable=0;points=[];" parent="_Sj6H3lR2v7R7_RWuAPX-210" vertex="1" connectable="0">
          <mxGeometry x="0.2669" relative="1" as="geometry">
            <mxPoint x="10" as="offset" />
          </mxGeometry>
        </mxCell>
        <mxCell id="_Sj6H3lR2v7R7_RWuAPX-212" value="&lt;font style=&quot;font-size: 6px;&quot;&gt;&lt;b&gt;protectPrincess&lt;/b&gt;&lt;/font&gt;" style="rounded=0;whiteSpace=wrap;html=1;align=center;" parent="3" vertex="1">
          <mxGeometry x="670" y="745" width="50" height="20" as="geometry" />
        </mxCell>
        <mxCell id="_Sj6H3lR2v7R7_RWuAPX-213" value="" style="edgeStyle=elbowEdgeStyle;elbow=horizontal;entryX=0.5;entryY=1;endArrow=open;endFill=1;rounded=0;entryDx=0;entryDy=0;exitX=0.5;exitY=0;exitDx=0;exitDy=0;" parent="3" target="_Sj6H3lR2v7R7_RWuAPX-270" edge="1">
          <mxGeometry width="100" height="100" relative="1" as="geometry">
            <mxPoint x="800" y="900" as="sourcePoint" />
            <mxPoint x="800" y="785" as="targetPoint" />
            <Array as="points">
              <mxPoint x="800" y="880" />
            </Array>
          </mxGeometry>
        </mxCell>
        <mxCell id="_Sj6H3lR2v7R7_RWuAPX-214" value="" style="edgeStyle=elbowEdgeStyle;elbow=horizontal;align=left;verticalAlign=bottom;endArrow=open;endSize=8;endFill=1;rounded=0;exitX=0.5;exitY=0;exitDx=0;exitDy=0;entryX=0.5;entryY=1;entryDx=0;entryDy=0;" parent="3" source="_Sj6H3lR2v7R7_RWuAPX-209" target="_Sj6H3lR2v7R7_RWuAPX-201" edge="1">
          <mxGeometry x="-1" relative="1" as="geometry">
            <mxPoint x="605" y="850" as="targetPoint" />
            <Array as="points" />
            <mxPoint x="605" y="764" as="sourcePoint" />
          </mxGeometry>
        </mxCell>
        <mxCell id="_Sj6H3lR2v7R7_RWuAPX-215" value="false" style="edgeLabel;html=1;align=center;verticalAlign=middle;resizable=0;points=[];" parent="_Sj6H3lR2v7R7_RWuAPX-214" vertex="1" connectable="0">
          <mxGeometry x="0.2669" relative="1" as="geometry">
            <mxPoint x="-17" as="offset" />
          </mxGeometry>
        </mxCell>
        <mxCell id="_Sj6H3lR2v7R7_RWuAPX-218" value="LBP&#xa;reached" style="rhombus;fontSize=9;" parent="3" vertex="1">
          <mxGeometry x="760" y="535" width="80" height="40" as="geometry" />
        </mxCell>
        <mxCell id="_Sj6H3lR2v7R7_RWuAPX-228" value="" style="edgeStyle=elbowEdgeStyle;elbow=horizontal;align=left;verticalAlign=bottom;endArrow=open;endSize=8;endFill=1;rounded=0;entryX=0.5;entryY=1;entryDx=0;entryDy=0;exitX=0.5;exitY=0;exitDx=0;exitDy=0;" parent="3" source="_Sj6H3lR2v7R7_RWuAPX-201" target="_Sj6H3lR2v7R7_RWuAPX-218" edge="1">
          <mxGeometry x="-1" relative="1" as="geometry">
            <mxPoint x="811" y="752" as="targetPoint" />
            <Array as="points" />
            <mxPoint x="770" y="680" as="sourcePoint" />
          </mxGeometry>
        </mxCell>
        <mxCell id="_Sj6H3lR2v7R7_RWuAPX-229" value="false" style="edgeLabel;html=1;align=center;verticalAlign=middle;resizable=0;points=[];" parent="_Sj6H3lR2v7R7_RWuAPX-228" vertex="1" connectable="0">
          <mxGeometry x="0.2669" relative="1" as="geometry">
            <mxPoint x="-17" as="offset" />
          </mxGeometry>
        </mxCell>
        <mxCell id="_Sj6H3lR2v7R7_RWuAPX-255" value="" style="edgeStyle=elbowEdgeStyle;elbow=horizontal;align=left;verticalAlign=bottom;endArrow=open;endSize=8;endFill=1;rounded=0;exitX=0;exitY=0.5;exitDx=0;exitDy=0;entryX=0;entryY=0.5;entryDx=0;entryDy=0;" parent="3" source="_Sj6H3lR2v7R7_RWuAPX-218" edge="1">
          <mxGeometry x="-1" relative="1" as="geometry">
            <mxPoint x="745" y="925" as="targetPoint" />
            <Array as="points">
              <mxPoint x="650" y="685" />
            </Array>
            <mxPoint x="810" y="649" as="sourcePoint" />
          </mxGeometry>
        </mxCell>
        <mxCell id="_Sj6H3lR2v7R7_RWuAPX-256" value="false" style="edgeLabel;html=1;align=center;verticalAlign=middle;resizable=0;points=[];" parent="_Sj6H3lR2v7R7_RWuAPX-255" vertex="1" connectable="0">
          <mxGeometry x="0.2669" relative="1" as="geometry">
            <mxPoint x="-17" as="offset" />
          </mxGeometry>
        </mxCell>
        <mxCell id="_Sj6H3lR2v7R7_RWuAPX-259" value="" style="edgeStyle=elbowEdgeStyle;elbow=horizontal;align=left;verticalAlign=bottom;endArrow=open;endSize=8;endFill=1;rounded=0;entryX=0.5;entryY=1;entryDx=0;entryDy=0;exitX=0.5;exitY=0;exitDx=0;exitDy=0;" parent="3" source="_Sj6H3lR2v7R7_RWuAPX-218" edge="1">
          <mxGeometry x="-1" relative="1" as="geometry">
            <mxPoint x="800" y="472" as="targetPoint" />
            <Array as="points" />
            <mxPoint x="799.72" y="535" as="sourcePoint" />
          </mxGeometry>
        </mxCell>
        <mxCell id="_Sj6H3lR2v7R7_RWuAPX-260" value="true" style="edgeLabel;html=1;align=center;verticalAlign=middle;resizable=0;points=[];" parent="_Sj6H3lR2v7R7_RWuAPX-259" vertex="1" connectable="0">
          <mxGeometry x="0.2669" relative="1" as="geometry">
            <mxPoint x="-17" as="offset" />
          </mxGeometry>
        </mxCell>
        <mxCell id="_Sj6H3lR2v7R7_RWuAPX-262" value="build ladder" style="rounded=1;" parent="3" vertex="1">
          <mxGeometry x="745" y="423" width="110" height="50" as="geometry" />
        </mxCell>
        <mxCell id="_Sj6H3lR2v7R7_RWuAPX-43" value="" style="ellipse;shape=endState;fillColor=#000000;strokeColor=#000000;" parent="3" vertex="1">
          <mxGeometry x="785" y="340" width="30" height="30" as="geometry" />
        </mxCell>
        <mxCell id="_Sj6H3lR2v7R7_RWuAPX-270" value="underattack" style="rhombus;fontSize=9;" parent="3" vertex="1">
          <mxGeometry x="760" y="830" width="80" height="40" as="geometry" />
        </mxCell>
        <mxCell id="_Sj6H3lR2v7R7_RWuAPX-277" value="" style="edgeStyle=elbowEdgeStyle;elbow=horizontal;align=left;verticalAlign=bottom;endArrow=open;endSize=8;endFill=1;rounded=0;exitX=0;exitY=0.5;exitDx=0;exitDy=0;entryX=1;entryY=0.5;entryDx=0;entryDy=0;" parent="3" source="_Sj6H3lR2v7R7_RWuAPX-270" target="_Sj6H3lR2v7R7_RWuAPX-279" edge="1">
          <mxGeometry x="-1" relative="1" as="geometry">
            <mxPoint x="718" y="849.43" as="targetPoint" />
            <Array as="points" />
            <mxPoint x="759" y="850" as="sourcePoint" />
          </mxGeometry>
        </mxCell>
        <mxCell id="_Sj6H3lR2v7R7_RWuAPX-278" value="true" style="edgeLabel;html=1;align=center;verticalAlign=middle;resizable=0;points=[];" parent="_Sj6H3lR2v7R7_RWuAPX-277" vertex="1" connectable="0">
          <mxGeometry x="0.2669" relative="1" as="geometry">
            <mxPoint x="10" as="offset" />
          </mxGeometry>
        </mxCell>
        <mxCell id="_Sj6H3lR2v7R7_RWuAPX-279" value="&lt;font style=&quot;font-size: 6px;&quot;&gt;&lt;b&gt;attackEnemy&lt;/b&gt;&lt;/font&gt;" style="rounded=0;whiteSpace=wrap;html=1;align=center;" parent="3" vertex="1">
          <mxGeometry x="669" y="840" width="50" height="20" as="geometry" />
        </mxCell>
        <mxCell id="_Sj6H3lR2v7R7_RWuAPX-280" value="" style="edgeStyle=elbowEdgeStyle;elbow=horizontal;align=left;verticalAlign=bottom;endArrow=open;endSize=8;endFill=1;rounded=0;exitX=0.5;exitY=0;exitDx=0;exitDy=0;entryX=0.5;entryY=1;entryDx=0;entryDy=0;" parent="3" source="_Sj6H3lR2v7R7_RWuAPX-270" target="_Sj6H3lR2v7R7_RWuAPX-209" edge="1">
          <mxGeometry x="-1" relative="1" as="geometry">
            <mxPoint x="799.9000000000001" y="775" as="targetPoint" />
            <Array as="points" />
            <mxPoint x="799.9000000000001" y="831" as="sourcePoint" />
          </mxGeometry>
        </mxCell>
        <mxCell id="_Sj6H3lR2v7R7_RWuAPX-281" value="false" style="edgeLabel;html=1;align=center;verticalAlign=middle;resizable=0;points=[];" parent="_Sj6H3lR2v7R7_RWuAPX-280" vertex="1" connectable="0">
          <mxGeometry x="0.2669" relative="1" as="geometry">
            <mxPoint x="-17" as="offset" />
          </mxGeometry>
        </mxCell>
        <mxCell id="_Sj6H3lR2v7R7_RWuAPX-318" value="" style="edgeStyle=elbowEdgeStyle;elbow=horizontal;verticalAlign=bottom;endArrow=open;endSize=8;endFill=1;rounded=0;exitX=0.5;exitY=0;exitDx=0;exitDy=0;entryX=0.5;entryY=1;entryDx=0;entryDy=0;" parent="3" source="_Sj6H3lR2v7R7_RWuAPX-262" target="_Sj6H3lR2v7R7_RWuAPX-43" edge="1">
          <mxGeometry x="-280" y="-228" as="geometry">
            <mxPoint x="720.1399999999999" y="141" as="targetPoint" />
            <mxPoint x="790" y="116" as="sourcePoint" />
            <Array as="points" />
          </mxGeometry>
        </mxCell>
        <mxCell id="ikUV5bZF2InAvdVvWLT--25" value="" style="edgeStyle=elbowEdgeStyle;elbow=horizontal;align=left;verticalAlign=bottom;endArrow=open;endSize=8;endFill=1;rounded=0;exitX=0;exitY=0.5;exitDx=0;exitDy=0;entryX=1;entryY=0.5;entryDx=0;entryDy=0;" edge="1" parent="3" target="ikUV5bZF2InAvdVvWLT--27" source="_Sj6H3lR2v7R7_RWuAPX-190">
          <mxGeometry x="-1" relative="1" as="geometry">
            <mxPoint x="370" y="765" as="targetPoint" />
            <Array as="points" />
            <mxPoint x="384" y="765" as="sourcePoint" />
          </mxGeometry>
        </mxCell>
        <mxCell id="ikUV5bZF2InAvdVvWLT--26" value="true" style="edgeLabel;html=1;align=center;verticalAlign=middle;resizable=0;points=[];" vertex="1" connectable="0" parent="ikUV5bZF2InAvdVvWLT--25">
          <mxGeometry x="0.2669" relative="1" as="geometry">
            <mxPoint x="9" as="offset" />
          </mxGeometry>
        </mxCell>
        <mxCell id="ikUV5bZF2InAvdVvWLT--27" value="&lt;font style=&quot;font-size: 6px;&quot;&gt;&lt;b&gt;gatherResource&lt;/b&gt;&lt;/font&gt;" style="rounded=0;whiteSpace=wrap;html=1;align=center;" vertex="1" parent="3">
          <mxGeometry x="290" y="755" width="50" height="20" as="geometry" />
        </mxCell>
        <mxCell id="ikUV5bZF2InAvdVvWLT--28" value="" style="edgeStyle=elbowEdgeStyle;elbow=horizontal;align=left;verticalAlign=bottom;endArrow=open;endSize=8;endFill=1;rounded=0;exitX=0.5;exitY=1;exitDx=0;exitDy=0;entryX=0.5;entryY=0;entryDx=0;entryDy=0;" edge="1" parent="3" source="_Sj6H3lR2v7R7_RWuAPX-190" target="_Sj6H3lR2v7R7_RWuAPX-128">
          <mxGeometry x="-1" relative="1" as="geometry">
            <mxPoint x="423.9000000000001" y="851" as="targetPoint" />
            <Array as="points" />
            <mxPoint x="423.9000000000001" y="785" as="sourcePoint" />
          </mxGeometry>
        </mxCell>
        <mxCell id="ikUV5bZF2InAvdVvWLT--29" value="false" style="edgeLabel;html=1;align=center;verticalAlign=middle;resizable=0;points=[];" vertex="1" connectable="0" parent="ikUV5bZF2InAvdVvWLT--28">
          <mxGeometry x="0.2669" relative="1" as="geometry">
            <mxPoint x="-17" as="offset" />
          </mxGeometry>
        </mxCell>
        <mxCell id="ikUV5bZF2InAvdVvWLT--30" value="If the ladder is up and there are already enough resources, is it better to help warriors (i.e. perform PickUpPrincess) or to gather more resources (i.e. to perform gatherResource)?" style="text;html=1;align=center;verticalAlign=middle;whiteSpace=wrap;rounded=0;" vertex="1" parent="3">
          <mxGeometry x="100" y="717.5" width="180" height="95" as="geometry" />
        </mxCell>
        <mxCell id="ikUV5bZF2InAvdVvWLT--31" value="&#xa;step towards ladder&#xa;building point (LBP)&#xa;" style="rounded=1;fontSize=11;" vertex="1" parent="3">
          <mxGeometry x="745" y="900" width="110" height="50" as="geometry" />
        </mxCell>
        <mxCell id="ikUV5bZF2InAvdVvWLT--39" value="" style="edgeStyle=elbowEdgeStyle;elbow=horizontal;align=left;verticalAlign=bottom;endArrow=open;endSize=8;endFill=1;rounded=0;exitX=0;exitY=0.5;exitDx=0;exitDy=0;entryX=1;entryY=0.5;entryDx=0;entryDy=0;" edge="1" parent="3" target="ikUV5bZF2InAvdVvWLT--41" source="_Sj6H3lR2v7R7_RWuAPX-201">
          <mxGeometry x="-1" relative="1" as="geometry">
            <mxPoint x="746" y="659" as="targetPoint" />
            <Array as="points" />
            <mxPoint x="760" y="659" as="sourcePoint" />
          </mxGeometry>
        </mxCell>
        <mxCell id="ikUV5bZF2InAvdVvWLT--40" value="true" style="edgeLabel;html=1;align=center;verticalAlign=middle;resizable=0;points=[];" vertex="1" connectable="0" parent="ikUV5bZF2InAvdVvWLT--39">
          <mxGeometry x="0.2669" relative="1" as="geometry">
            <mxPoint x="9" as="offset" />
          </mxGeometry>
        </mxCell>
        <mxCell id="ikUV5bZF2InAvdVvWLT--41" value="&lt;font style=&quot;font-size: 6px;&quot;&gt;&lt;b&gt;gatherResource&lt;/b&gt;&lt;/font&gt;" style="rounded=0;whiteSpace=wrap;html=1;align=center;" vertex="1" parent="3">
          <mxGeometry x="666" y="649" width="50" height="20" as="geometry" />
        </mxCell>
      </root>
    </mxGraphModel>
  </diagram>
</mxfile>
